<svg xmlns="http://www.w3.org/2000/svg" width="120" height="120" viewBox="0 0 120 120"><defs><style>.a{opacity:0;}.b{fill:none;stroke:#1d1818;stroke-linejoin:bevel;stroke-width:2px;}</style></defs><rect class="a" width="120" height="120"/><g transform="translate(-580.261 -393.001)"><path class="b" d="M640.079,413a40,40,0,1,1-39.818,40A39.91,39.91,0,0,1,640.079,413Z"/><path class="b" d="M617.877,419.7l3.918,9.7a5.006,5.006,0,0,1,.055,3.6l-5.861,15.88h-4.37l-8.177,20.22"/><path class="b" d="M605.28,472.393h9.19l1.761,6.259a10.007,10.007,0,0,0,1.8,3.522l5.747,7.215"/><path class="b" d="M680.261,454.972,674.8,451.01v-8.084h-10.3l-4.223,5.682a5,5,0,0,1-4.013,2.018H640.186l7.651-10.612h9.712l6.8-9.756H672.5"/><path class="b" d="M646.378,492.576l8.417-15.707H647.05a2,2,0,0,1-1.75-2.969l6.316-11.417a10,10,0,0,1,8.751-5.16h12.37l5.752,5.815"/><path class="b" d="M661.657,419.34l-5.2,6.935H669.97"/></g></svg>